# xmcd
# 
# Track frame offsets:
#     150
#     14526
#     29965
#     43617
# 
# Disc length: 771
# 
# Revision: 3
# Processed by: cddbd v1.5.2PL0 Copyright (c) Steve Scherf et al.
# Submitted via: fre:ac v1.0.31
# 
DISCID=32030104
DTITLE=Texas Lightning - All My Love Tonight
DYEAR=2006
DGENRE=Country
TTITLE0=I Promise
TTITLE1=Enjoy The Silence
TTITLE2=No No Never
TTITLE3=I Promise (Acoustic Version)
EXTD=
EXTT0=
EXTT1=
EXTT2=
EXTT3=
PLAYORDER=
